<?xml version="1.0" standalone="no"?><!DOCTYPE svg PUBLIC "-//W3C//DTD SVG 1.1//EN" "http://www.w3.org/Graphics/SVG/1.1/DTD/svg11.dtd"><svg t="1628479357424" class="icon" viewBox="0 0 1024 1024" version="1.1" xmlns="http://www.w3.org/2000/svg" p-id="6199" xmlns:xlink="http://www.w3.org/1999/xlink" width="200" height="200"><defs><style type="text/css"></style></defs><path d="M721.454545 139.636364v46.545454a93.090909 93.090909 0 0 1-88.436363 92.974546L628.363636 279.272727H395.636364a93.090909 93.090909 0 0 1-92.974546-88.436363L302.545455 186.181818V139.636364h-46.545455a93.090909 93.090909 0 0 0-93.090909 93.090909v605.090909a93.090909 93.090909 0 0 0 93.090909 93.090909h512a93.090909 93.090909 0 0 0 93.090909-93.090909V232.727273a93.090909 93.090909 0 0 0-93.090909-93.090909h-46.545455zM290.909091 535.272727h442.181818a34.909091 34.909091 0 0 1 0 69.818182h-442.181818a34.909091 34.909091 0 0 1 0-69.818182z m0-139.636363h209.454545a34.909091 34.909091 0 0 1 0 69.818181h-209.454545a34.909091 34.909091 0 0 1 0-69.818181z m116.363636-302.545455a58.181818 58.181818 0 0 0-58.065454 54.365091L349.090909 151.272727v23.272728a58.181818 58.181818 0 0 0 54.365091 58.065454L407.272727 232.727273h209.454546a58.181818 58.181818 0 0 0 58.065454-54.365091L674.909091 174.545455v-23.272728a58.181818 58.181818 0 0 0-54.365091-58.065454L616.727273 93.090909h-209.454546z" p-id="6200" fill="#ffffff"></path></svg>